<svg width="24" height="24" viewBox="0 0 24 24" fill="none" xmlns="http://www.w3.org/2000/svg">
<g clip-path="url(#clip0_3_86)">
<path d="M13.26 0.205344C13.4165 0.0933852 13.5997 0.0244426 13.7911 0.00539977C13.9826 -0.0136431 14.1758 0.0178801 14.3512 0.0968219C14.5267 0.175764 14.6785 0.299361 14.7912 0.455275C14.904 0.611188 14.9739 0.793961 14.994 0.985344L15 1.09934V16.7113C15.0001 16.9038 14.9496 17.0929 14.8538 17.2597C14.7579 17.4266 14.6199 17.5654 14.4536 17.6622C14.2874 17.7591 14.0986 17.8106 13.9061 17.8117C13.7137 17.8128 13.5244 17.7633 13.357 17.6683L13.261 17.6063L6.68 12.9053H4C3.49542 12.9055 3.00943 12.7149 2.63945 12.3718C2.26947 12.0288 2.04284 11.5585 2.005 11.0553L2 10.9053V6.90534C1.99984 6.40077 2.19041 5.91478 2.5335 5.5448C2.87659 5.17481 3.34684 4.94819 3.85 4.91034L4 4.90534H6.68L13.26 0.205344ZM19.667 3.68834C20.4017 4.3443 20.9894 5.14822 21.3915 6.04733C21.7935 6.94644 22.0009 7.92042 22 8.90534C22.0009 9.89026 21.7935 10.8642 21.3915 11.7634C20.9894 12.6625 20.4017 13.4664 19.667 14.1223C19.5694 14.2114 19.4551 14.2802 19.3308 14.3248C19.2064 14.3694 19.0745 14.3889 18.9426 14.3823C18.8106 14.3756 18.6813 14.3428 18.5621 14.2859C18.4429 14.229 18.3362 14.149 18.2481 14.0506C18.1599 13.9521 18.0922 13.8372 18.0487 13.7125C18.0053 13.5877 17.987 13.4556 17.9949 13.3237C18.0028 13.1919 18.0367 13.0629 18.0948 12.9442C18.1528 12.8255 18.2338 12.7195 18.333 12.6323C18.8582 12.164 19.2782 11.5897 19.5656 10.9473C19.8529 10.305 20.0009 9.60904 20 8.90534C20 7.42534 19.358 6.09534 18.333 5.17834C18.2338 5.09114 18.1528 4.98515 18.0948 4.86648C18.0367 4.7478 18.0028 4.61881 17.9949 4.48694C17.987 4.35508 18.0053 4.22295 18.0487 4.0982C18.0922 3.97345 18.1599 3.85855 18.2481 3.76013C18.3362 3.66171 18.4429 3.58172 18.5621 3.52479C18.6813 3.46786 18.8106 3.43511 18.9426 3.42844C19.0745 3.42176 19.2064 3.44129 19.3308 3.4859C19.4551 3.53051 19.5694 3.59932 19.667 3.68834ZM17.667 5.92434C18.0866 6.29908 18.4223 6.75829 18.652 7.27185C18.8818 7.78542 19.0003 8.34174 19 8.90434C19.0007 9.46729 18.8823 10.024 18.6525 10.538C18.4228 11.0519 18.0869 11.5114 17.667 11.8863C17.4774 12.0548 17.2308 12.1448 16.9773 12.1383C16.7237 12.1318 16.4821 12.0292 16.3014 11.8513C16.1206 11.6733 16.0143 11.4333 16.0038 11.1799C15.9933 10.9265 16.0796 10.6786 16.245 10.4863L16.333 10.3963C16.743 10.0283 17 9.49734 17 8.90534C17.0012 8.39325 16.8049 7.90042 16.452 7.52934L16.333 7.41434C16.2338 7.32714 16.1528 7.22115 16.0948 7.10248C16.0367 6.9838 16.0028 6.85481 15.9949 6.72294C15.987 6.59108 16.0053 6.45895 16.0487 6.3342C16.0922 6.20945 16.1599 6.09455 16.2481 5.99613C16.3362 5.89771 16.4429 5.81772 16.5621 5.76079C16.6813 5.70386 16.8106 5.67111 16.9426 5.66444C17.0745 5.65776 17.2064 5.67729 17.3308 5.7219C17.4551 5.76651 17.5694 5.83532 17.667 5.92434Z" fill="white"/>
</g>
<defs>
<clipPath id="clip0_3_86">
<rect width="24" height="24" fill="white"/>
</clipPath>
</defs>
</svg>
