<svg width="20" height="20" viewBox="0 0 20 20" fill="none" xmlns="http://www.w3.org/2000/svg">
<path d="M0 10C0.00207584 8.02253 0.725779 6.12669 2.01234 4.72841C3.29891 3.33012 5.04327 2.54357 6.86275 2.54132H17.9912L16.6431 1.07515C16.5392 0.953959 16.4827 0.793664 16.4854 0.628038C16.488 0.462411 16.5498 0.304385 16.6576 0.187251C16.7653 0.0701175 16.9107 0.00302189 17.0631 9.96031e-05C17.2155 -0.00282268 17.363 0.0586564 17.4745 0.171585L19.8275 2.72885C19.9376 2.84872 19.9995 3.01121 19.9995 3.18063C19.9995 3.35005 19.9376 3.51254 19.8275 3.63241L17.4745 6.18968C17.363 6.30261 17.2155 6.36409 17.0631 6.36116C16.9107 6.35824 16.7653 6.29115 16.6576 6.17401C16.5498 6.05688 16.488 5.89885 16.4854 5.73323C16.4827 5.5676 16.5392 5.4073 16.6431 5.28611L17.9912 3.81995H6.86275C5.35521 3.82192 3.90994 4.47367 2.84395 5.63222C1.77796 6.79078 1.17829 8.36155 1.17647 10C1.17647 10.1696 1.1145 10.3322 1.00418 10.4521C0.893865 10.572 0.744245 10.6393 0.588235 10.6393C0.432226 10.6393 0.282606 10.572 0.17229 10.4521C0.0619745 10.3322 0 10.1696 0 10ZM19.4118 9.36068C19.2558 9.36068 19.1061 9.42804 18.9958 9.54794C18.8855 9.66783 18.8235 9.83044 18.8235 10C18.8217 11.6384 18.222 13.2092 17.1561 14.3678C16.0901 15.5263 14.6448 16.1781 13.1373 16.1801H2.00882L3.35686 14.7139C3.46077 14.5927 3.51734 14.4324 3.51465 14.2668C3.51196 14.1011 3.45022 13.9431 3.34245 13.826C3.23467 13.7089 3.08927 13.6418 2.93688 13.6388C2.78449 13.6359 2.637 13.6974 2.52549 13.8103L0.172549 16.3676C0.0623918 16.4875 0.000517602 16.65 0.000517602 16.8194C0.000517602 16.9888 0.0623918 17.1513 0.172549 17.2712L2.52549 19.8284C2.637 19.9413 2.78449 20.0028 2.93688 19.9999C3.08927 19.997 3.23467 19.9299 3.34245 19.8127C3.45022 19.6956 3.51196 19.5376 3.51465 19.372C3.51734 19.2063 3.46077 19.046 3.35686 18.9248L2.00882 17.4587H13.1373C14.9567 17.4564 16.7011 16.6699 17.9877 15.2716C19.2742 13.8733 19.9979 11.9775 20 10C20 9.83044 19.938 9.66783 19.8277 9.54794C19.7174 9.42804 19.5678 9.36068 19.4118 9.36068ZM10.7843 13.1966C10.9403 13.1966 11.0899 13.1292 11.2003 13.0093C11.3106 12.8894 11.3725 12.7268 11.3725 12.5573V7.44274C11.3726 7.33378 11.347 7.22662 11.2982 7.13143C11.2494 7.03624 11.1791 6.95619 11.0938 6.89886C11.0085 6.84154 10.9112 6.80885 10.8111 6.80389C10.7109 6.79894 10.6113 6.82188 10.5216 6.87055L8.95294 7.72297C8.88141 7.75885 8.81724 7.80997 8.76424 7.87331C8.71124 7.93666 8.67048 8.01092 8.64439 8.09171C8.6183 8.1725 8.6074 8.25816 8.61235 8.34361C8.6173 8.42906 8.63799 8.51256 8.67319 8.58915C8.7084 8.66574 8.7574 8.73387 8.81729 8.78949C8.87718 8.84511 8.94674 8.88709 9.02184 8.91294C9.09695 8.93879 9.17606 8.94798 9.25449 8.93996C9.33293 8.93195 9.40908 8.90689 9.47843 8.86628L10.1961 8.4763V12.5573C10.1961 12.7268 10.2581 12.8894 10.3684 13.0093C10.4787 13.1292 10.6283 13.1966 10.7843 13.1966Z" fill="white"/>
</svg>
