<svg width="23" height="21" viewBox="0 0 23 21" fill="none" xmlns="http://www.w3.org/2000/svg">
<path d="M16.5037 1.68C17.0912 1.67949 17.6729 1.80107 18.2147 2.03763C18.7564 2.27418 19.2474 2.62095 19.6588 3.0576C20.5064 3.95336 20.9815 5.16025 20.9815 6.4176C20.9815 7.67495 20.5064 8.88184 19.6588 9.7776L11.2991 18.5892L2.93937 9.7776C2.09177 8.88184 1.61666 7.67495 1.61666 6.4176C1.61666 5.16025 2.09177 3.95336 2.93937 3.0576C3.35098 2.62126 3.84197 2.27468 4.38369 2.03809C4.9254 1.8015 5.50697 1.67964 6.09443 1.67964C6.68189 1.67964 7.26346 1.8015 7.80517 2.03809C8.34689 2.27468 8.83788 2.62126 9.24949 3.0576L11.2991 5.2416L13.3406 3.0744C13.7507 2.63255 14.2422 2.28133 14.7857 2.04174C15.3292 1.80215 15.9135 1.67912 16.5037 1.68ZM16.5037 2.2536e-06C15.7013 -0.000705632 14.9069 0.165361 14.167 0.488464C13.427 0.811567 12.7565 1.2852 12.1947 1.8816L11.2991 2.8224L10.4034 1.8816C9.84092 1.28628 9.17025 0.813466 8.43046 0.490722C7.69066 0.167978 6.89656 0.00176184 6.09443 0.00176184C5.2923 0.00176184 4.4982 0.167978 3.75841 0.490722C3.01862 0.813466 2.34794 1.28628 1.78548 1.8816C0.641165 3.09425 0 4.72614 0 6.426C0 8.12586 0.641165 9.75776 1.78548 10.9704L11.2991 21L20.8127 10.9704C21.957 9.75776 22.5981 8.12586 22.5981 6.426C22.5981 4.72614 21.957 3.09425 20.8127 1.8816C20.2503 1.28596 19.5797 0.812822 18.8399 0.489774C18.1001 0.166725 17.306 0.000231922 16.5037 2.2536e-06Z" fill="#9DB2CE"/>
</svg>
