<svg width="25" height="25" viewBox="0 0 25 25" fill="none" xmlns="http://www.w3.org/2000/svg">
<path fill-rule="evenodd" clip-rule="evenodd" d="M5.83333 8.33334C5.61231 8.33334 5.40035 8.42114 5.24407 8.57742C5.08779 8.7337 4.99999 8.94566 4.99999 9.16667V19.1667C4.99999 19.3877 5.08779 19.5996 5.24407 19.7559C5.40035 19.9122 5.61231 20 5.83333 20H19.1667C19.3877 20 19.5996 19.9122 19.7559 19.7559C19.9122 19.5996 20 19.3877 20 19.1667V9.16667C20 8.94566 19.9122 8.7337 19.7559 8.57742C19.5996 8.42114 19.3877 8.33334 19.1667 8.33334H17.0833C16.8623 8.33334 16.6504 8.24554 16.4941 8.08926C16.3378 7.93298 16.25 7.72102 16.25 7.50001C16.25 7.27899 16.3378 7.06703 16.4941 6.91075C16.6504 6.75447 16.8623 6.66667 17.0833 6.66667H19.1667C19.8297 6.66667 20.4656 6.93007 20.9344 7.39891C21.4033 7.86775 21.6667 8.50363 21.6667 9.16667V19.1667C21.6667 19.8297 21.4033 20.4656 20.9344 20.9344C20.4656 21.4033 19.8297 21.6667 19.1667 21.6667H5.83333C5.17029 21.6667 4.5344 21.4033 4.06556 20.9344C3.59672 20.4656 3.33333 19.8297 3.33333 19.1667V9.16667C3.33333 8.50363 3.59672 7.86775 4.06556 7.39891C4.5344 6.93007 5.17029 6.66667 5.83333 6.66667H7.91666C8.13767 6.66667 8.34964 6.75447 8.50592 6.91075C8.6622 7.06703 8.74999 7.27899 8.74999 7.50001C8.74999 7.72102 8.6622 7.93298 8.50592 8.08926C8.34964 8.24554 8.13767 8.33334 7.91666 8.33334H5.83333ZM11.6667 2.72667L9.27999 5.11334C9.13782 5.24582 8.94977 5.31794 8.75547 5.31452C8.56117 5.31109 8.37579 5.23237 8.23837 5.09496C8.10096 4.95755 8.02225 4.77216 8.01882 4.57786C8.01539 4.38356 8.08751 4.19551 8.21999 4.05334L11.97 0.30334C12.1106 0.162889 12.3012 0.0839996 12.5 0.0839996C12.6987 0.0839996 12.8894 0.162889 13.03 0.30334L16.78 4.05334C16.9125 4.19551 16.9846 4.38356 16.9812 4.57786C16.9777 4.77216 16.899 4.95755 16.7616 5.09496C16.6242 5.23237 16.4388 5.31109 16.2445 5.31452C16.0502 5.31794 15.8622 5.24582 15.72 5.11334L13.3333 2.72667V14.1667C13.3333 14.3877 13.2455 14.5996 13.0892 14.7559C12.933 14.9122 12.721 15 12.5 15C12.279 15 12.067 14.9122 11.9107 14.7559C11.7545 14.5996 11.6667 14.3877 11.6667 14.1667V2.72667Z" fill="#E69A15"/>
</svg>
